<?xml version="1.0" encoding="iso-8859-1"?>
<!-- Generator: Adobe Illustrator 18.1.1, SVG Export Plug-In . SVG Version: 6.00 Build 0)  -->
<svg version="1.1" id="Capa_1" xmlns="http://www.w3.org/2000/svg" xmlns:xlink="http://www.w3.org/1999/xlink" x="0px" y="0px"
	 viewBox="0 0 321.069 321.069" style="enable-background:new 0 0 321.069 321.069;" xml:space="preserve">
<g>
	<circle cx="51.184" cy="267.996" r="12.238"/>
	<path d="M34.378,83.067c8.159,0,16.317,0,24.476,0c8.768,0,8.768-13.598,0-13.598
		c-8.159,0-16.317,0-24.476,0C25.61,69.47,25.61,83.067,34.378,83.067z"/>
	<path d="M33.018,114.342c8.61,0,17.22,0,25.836,0c8.768,0,8.768-13.598,0-13.598c-8.61,0-17.226,0-25.836,0
		C24.25,100.744,24.25,114.342,33.018,114.342z"/>
	<path d="M59.762,136.343c-8.371,1.278-16.943,1.115-25.384,1.115c-8.768,0-8.768,13.598,0,13.598
		c9.725,0,19.369-0.125,29.001-1.605C72.027,148.13,68.339,135.027,59.762,136.343z"/>
	<circle cx="133.347" cy="267.702" r="12.238"/>
	<path d="M116.54,82.774c8.159,0,16.317,0,24.476,0c8.768,0,8.768-13.598,0-13.598
		c-8.159,0-16.317,0-24.476,0C107.772,69.176,107.772,82.774,116.54,82.774z"/>
	<path d="M115.181,114.048c8.61,0,17.226,0,25.836,0c8.768,0,8.768-13.598,0-13.598
		c-8.61,0-17.226,0-25.836,0C106.413,100.451,106.413,114.048,115.181,114.048z"/>
	<path d="M141.924,136.049c-8.371,1.278-16.943,1.115-25.384,1.115c-8.768,0-8.768,13.598,0,13.598
		c9.725,0,19.374-0.125,29.007-1.605C154.189,147.836,150.502,134.733,141.924,136.049z"/>
	<path d="M239.599,7.671c-22.197,0.402-41.549,12.602-62.446,18.449c-2.268,0.631-3.927,1.795-5.102,3.242
		c-2.953-4.455-7.163-7.8-13.26-9.002c-21.87-4.34-43.181,3.34-64.921,4.623c-1.806,0.103-3.334,0.609-4.645,1.36
		c-0.462,0.207-0.903,0.446-1.327,0.723c-2.79-3.133-6.429-5.455-11.27-6.418c-21.865-4.34-43.175,3.34-64.915,4.623
		c-1.8,0.109-3.329,0.609-4.64,1.354C3.93,28.051,1.52,30.972,1.515,35.47c-0.136,88.847-3.34,177.689,0,266.514
		c0.228,6.114,4.514,9.459,10.198,10.198c25.292,3.291,50.757-1.262,76.147,0c1.218,0.06,2.524-0.234,3.786-0.751
		c0.718,0.196,1.458,0.354,2.23,0.457c25.292,3.291,50.757-1.262,76.147,0c4.063,0.201,9.241-3.225,9.834-7.49
		c10.454-75.32-1.828-150.222-1.376-225.65c15.257,73.634,29.409,147.491,48.125,220.353c1.055,4.112,5.423,7.859,9.834,7.49
		c26.385-2.225,51.111-12.211,77.126-16.524c4.177-0.691,7.805-5.695,7.484-9.834c-6.01-78.997-36.279-152.43-51.339-229.621
		C266.653,34.964,261.285,7.274,239.599,7.671z M78.973,291.574c-19.118-0.071-38.264,2.23-57.328,1.12
		c-2.698-82.663-0.098-165.348,0.218-248.027c12.575-1.539,25.041-4.123,37.709-5.02c24.666-1.74,16.622,60.782,17.236,76.071
		C79.168,174.286,85.853,233.115,78.973,291.574z M161.135,291.28c-19.118-0.071-38.264,2.23-57.333,1.12
		c-2.698-82.663-0.098-165.342,0.218-248.027c12.575-1.539,25.041-4.123,37.709-5.015c24.666-1.74,16.622,60.776,17.236,76.065
		C161.331,173.998,168.016,232.821,161.135,291.28z M244.184,285.254c-20.206-80.204-35.218-161.551-52.449-242.414
		c12.151-4.204,23.97-9.475,36.338-13.092c22.904-6.695,28.827,56.931,32.575,71.366c14.713,56.626,33.516,112.436,39.248,170.885
		C281.246,275.996,263.036,282.491,244.184,285.254z"/>
	<circle cx="267.795" cy="254.8" r="12.238"/>
	<path d="M212.485,77.563c7.974-1.73,15.947-3.465,23.916-5.194c8.567-1.86,4.933-14.968-3.617-13.108
		c-7.974,1.73-15.947,3.465-23.916,5.194C200.302,66.315,203.935,79.423,212.485,77.563z"/>
	<path d="M239.425,89.823c-8.414,1.828-16.834,3.655-25.248,5.483c-8.567,1.86-4.933,14.968,3.617,13.108
		c8.414-1.828,16.834-3.655,25.248-5.483C251.609,101.071,247.975,87.963,239.425,89.823z"/>
	<path d="M249.585,123.795c-8.501,3.258-17.405,5.167-26.287,7.098c-8.567,1.86-4.933,14.968,3.617,13.108
		c8.877-1.925,17.78-3.835,26.287-7.098C261.306,133.803,257.793,120.651,249.585,123.795z"/>
</g>
<g>
</g>
<g>
</g>
<g>
</g>
<g>
</g>
<g>
</g>
<g>
</g>
<g>
</g>
<g>
</g>
<g>
</g>
<g>
</g>
<g>
</g>
<g>
</g>
<g>
</g>
<g>
</g>
<g>
</g>
</svg>
