<?xml version="1.0" encoding="iso-8859-1"?>
<!-- Generator: Adobe Illustrator 16.0.0, SVG Export Plug-In . SVG Version: 6.00 Build 0)  -->
<!DOCTYPE svg PUBLIC "-//W3C//DTD SVG 1.1//EN" "http://www.w3.org/Graphics/SVG/1.1/DTD/svg11.dtd">
<svg version="1.1" id="Capa_1" xmlns="http://www.w3.org/2000/svg" xmlns:xlink="http://www.w3.org/1999/xlink" x="0px" y="0px"
	 width="47.01px" height="47.01px" viewBox="0 0 47.01 47.01" style="enable-background:new 0 0 47.01 47.01;" xml:space="preserve"
	>
<g>
	<path d="M14.444,0.31c-0.122,0.064-0.375,0.238-0.398,0.255c-2.65,1.736-6.029,6.979-7.091,10.45
		c-1.438,4.681,1.677,13.351,5.07,19.902c3.392,6.554,8.674,14.101,13.328,15.63c0.938,0.307,1.998,0.463,3.146,0.463
		c2.746,0,8.023-0.887,9.905-1.626c0,0,0.335-0.125,0.465-0.192c0.679-0.352,1.18-0.945,1.411-1.672
		c0.229-0.728,0.164-1.498-0.188-2.174c-0.126-0.24-9.105-8.024-9.105-8.024l-4.623,2.03c-0.543,0.28-1.298,0.031-1.576-0.506
		L16.183,18.23c-0.143-0.278-0.172-0.597-0.078-0.894c0.093-0.298,0.298-0.541,0.578-0.686l5.166-2.887
		c0,0-3.445-12.026-3.553-12.234C17.816,0.601,16.808,0,15.728,0C15.279,0,14.837,0.107,14.444,0.31z"/>
</g>
<g>
</g>
<g>
</g>
<g>
</g>
<g>
</g>
<g>
</g>
<g>
</g>
<g>
</g>
<g>
</g>
<g>
</g>
<g>
</g>
<g>
</g>
<g>
</g>
<g>
</g>
<g>
</g>
<g>
</g>
</svg>
